<svg viewBox="0 0 374 180" fill="none" xmlns="http://www.w3.org/2000/svg"><path d="M0 15C0 6.716 6.716 0 15 0h344c8.284 0 15 6.716 15 15v141c0 8.284-6.716 15-15 15H15c-8.284 0-15-6.716-15-15V15Z" fill="#53BF6B"/><path d="M94 99v21h5v-2h5v2h4V99h-4v2h-5v-2h-5Z" fill="#E9E9E9"/><path d="M111 62a1 1 0 0 1 1-1h68a1 1 0 0 1 1 1v68a1 1 0 0 1-1 1h-68a1 1 0 0 1-1-1V62Zm123 26a1 1 0 0 1 1-1h26a1 1 0 0 1 1 1v14a1 1 0 0 1-1 1h-26a1 1 0 0 1-1-1V88Zm74 4a1 1 0 0 1 1-1h16a1 1 0 0 1 1 1v14a1 1 0 0 1-1 1h-16a1 1 0 0 1-1-1V92Zm12-30a1 1 0 0 1 1-1h21a1 1 0 0 1 1 1v22a1 1 0 0 1-1 1h-21a1 1 0 0 1-1-1V62Z" fill="#3E3535"/><path d="M215 141a1 1 0 0 1 1-1h42a1 1 0 0 1 1 1v38a1 1 0 0 1-1 1h-42a1 1 0 0 1-1-1v-38Zm73 0a1 1 0 0 1 1-1h42a1 1 0 0 1 1 1v38a1 1 0 0 1-1 1h-42a1 1 0 0 1-1-1v-38Z" fill="#DBDBDB"/><path d="M37 132a1 1 0 0 1 1-1h25a1 1 0 0 1 1 1v9a1 1 0 0 0 1 1h8a1 1 0 0 0 1-1v-9a1 1 0 0 1 1-1h25a1 1 0 0 1 1 1v40a1 1 0 0 1-1 1H38a1 1 0 0 1-1-1v-40Z" fill="#A9A9A9"/><path d="M37 132a1 1 0 0 1 1-1h25a1 1 0 0 1 1 1v9a1 1 0 0 0 1 1h8a1 1 0 0 0 1-1v-9a1 1 0 0 1 1-1h25a1 1 0 0 1 1 1v40a1 1 0 0 1-1 1H38a1 1 0 0 1-1-1v-40Z" fill="#A9A9A9"/><path d="M37 132a1 1 0 0 1 1-1h25a1 1 0 0 1 1 1v9a1 1 0 0 0 1 1h8a1 1 0 0 0 1-1v-9a1 1 0 0 1 1-1h25a1 1 0 0 1 1 1v40a1 1 0 0 1-1 1H38a1 1 0 0 1-1-1v-40Z" fill="#A9A9A9"/><path d="M37 132a1 1 0 0 1 1-1h25a1 1 0 0 1 1 1v9a1 1 0 0 0 1 1h8a1 1 0 0 0 1-1v-9a1 1 0 0 1 1-1h25a1 1 0 0 1 1 1v40a1 1 0 0 1-1 1H38a1 1 0 0 1-1-1v-40Z" fill="#A9A9A9"/><path d="M37 132a1 1 0 0 1 1-1h25a1 1 0 0 1 1 1v9a1 1 0 0 0 1 1h8a1 1 0 0 0 1-1v-9a1 1 0 0 1 1-1h25a1 1 0 0 1 1 1v40a1 1 0 0 1-1 1H38a1 1 0 0 1-1-1v-40Z" fill="#A9A9A9"/><path d="M5 40a1 1 0 0 1 1-1h66a1 1 0 0 1 1 1v68a1 1 0 0 1-1 1H6a1 1 0 0 1-1-1V40Z" fill="#BFBFBF"/><path d="M7 89h6v5H7v-5Zm0-6h6v5H7v-5Zm0-6h6v5H7v-5Zm0-7h6v5H7v-5Zm0-6h6v5H7v-5Zm0-6h6v5H7v-5Zm0-6h6v5H7v-5Z" fill="#FAEEC7"/><path d="M355 39h5v-2h7v2h1v6.5l4 3V123l-4 3v5h-1v2h-6v-2h-6V39Z" fill="#D9D9D9"/><path d="M36 19c0 9.389-7.611 17-17 17S2 28.389 2 19 9.611 2 19 2s17 7.611 17 17Z" fill="#FFE458"/><path d="M27 19a8 8 0 1 1-16 0 8 8 0 0 1 16 0Z" fill="#fff"/><path d="M36 151c0 9.389-7.611 17-17 17s-17-7.611-17-17 7.611-17 17-17 17 7.611 17 17Z" fill="#FFE458"/><path d="M27 151a8 8 0 1 1-16 0 8 8 0 0 1 16 0Z" fill="#fff"/><path d="M370 19c0 9.389-7.611 17-17 17s-17-7.611-17-17 7.611-17 17-17 17 7.611 17 17Z" fill="#FFE458"/><path d="M361 19a8 8 0 1 1-16 0 8 8 0 0 1 16 0Z" fill="#fff"/><path d="M370 152c0 9.389-7.611 17-17 17s-17-7.611-17-17 7.611-17 17-17 17 7.611 17 17Z" fill="#FFE458"/><path d="M361 152a8 8 0 1 1-16 0 8 8 0 0 1 16 0Z" fill="#fff"/><path d="M52 12a5 5 0 1 1-10 0 5 5 0 0 1 10 0Z" fill="#FFE458"/><path d="M50 12a3 3 0 1 1-6 0 3 3 0 0 1 6 0Z" fill="#fff"/><path d="M66.65 12a5 5 0 1 1-10 0 5 5 0 0 1 10 0Z" fill="#FFE458"/><path d="M64.65 12a3 3 0 1 1-6 0 3 3 0 0 1 6 0Z" fill="#fff"/><path d="M81.3 12a5 5 0 1 1-10 0 5 5 0 0 1 10 0Z" fill="#FFE458"/><path d="M79.3 12a3 3 0 1 1-6 0 3 3 0 0 1 6 0Z" fill="#fff"/><path d="M95.95 12a5 5 0 1 1-10 0 5 5 0 0 1 10 0Z" fill="#FFE458"/><path d="M93.95 12a3 3 0 1 1-6 0 3 3 0 0 1 6 0Z" fill="#fff"/><path d="M110.6 12a5 5 0 1 1-10 0 5 5 0 0 1 10 0Z" fill="#FFE458"/><path d="M108.6 12a3 3 0 1 1-6 0 3 3 0 0 1 6 0Z" fill="#fff"/><path d="M125.25 12a5 5 0 1 1-10 0 5 5 0 0 1 10 0Z" fill="#FFE458"/><path d="M123.25 12a3 3 0 1 1-6 0 3 3 0 0 1 6 0Z" fill="#fff"/><path d="M139.9 12a5 5 0 1 1-10 0 5 5 0 0 1 10 0Z" fill="#FFE458"/><path d="M137.9 12a3 3 0 1 1-6 0 3 3 0 0 1 6 0Z" fill="#fff"/><path d="M154.55 12a5 5 0 1 1-10 0 5 5 0 0 1 10 0Z" fill="#FFE458"/><path d="M152.55 12a3 3 0 1 1-6 0 3 3 0 0 1 6 0Z" fill="#fff"/><path d="M169.2 12a5 5 0 1 1-10 0 5 5 0 0 1 10 0Z" fill="#FFE458"/><path d="M167.2 12a3 3 0 1 1-6 0 3 3 0 0 1 6 0Z" fill="#fff"/><path d="M183.85 12a5 5 0 1 1-10 0 5 5 0 0 1 10 0Z" fill="#FFE458"/><path d="M181.85 12a3 3 0 1 1-6 0 3 3 0 0 1 6 0Z" fill="#fff"/><path d="M198.5 12a5 5 0 1 1-10 0 5 5 0 0 1 10 0Z" fill="#FFE458"/><path d="M196.5 12a3 3 0 1 1-6 0 3 3 0 0 1 6 0Z" fill="#fff"/><path d="M213.15 12a5 5 0 1 1-10 0 5 5 0 0 1 10 0Z" fill="#FFE458"/><path d="M211.15 12a3 3 0 1 1-6 0 3 3 0 0 1 6 0Z" fill="#fff"/><path d="M227.8 12a5 5 0 1 1-10 0 5 5 0 0 1 10 0Z" fill="#FFE458"/><path d="M225.8 12a3 3 0 1 1-6 0 3 3 0 0 1 6 0Z" fill="#fff"/><path d="M242.45 12a5 5 0 1 1-10 0 5 5 0 0 1 10 0Z" fill="#FFE458"/><path d="M240.45 12a3 3 0 1 1-6 0 3 3 0 0 1 6 0Z" fill="#fff"/><path d="M257.1 12a5 5 0 1 1-10 0 5 5 0 0 1 10 0Z" fill="#FFE458"/><path d="M255.1 12a3 3 0 1 1-6 0 3 3 0 0 1 6 0Z" fill="#fff"/><path d="M271.75 12a5 5 0 1 1-10 0 5 5 0 0 1 10 0Z" fill="#FFE458"/><path d="M269.75 12a3 3 0 1 1-6 0 3 3 0 0 1 6 0Z" fill="#fff"/><path d="M286.4 12a5 5 0 1 1-10 0 5 5 0 0 1 10 0Z" fill="#FFE458"/><path d="M284.4 12a3 3 0 1 1-6 0 3 3 0 0 1 6 0Z" fill="#fff"/><path d="M301.05 12a5 5 0 1 1-10 0 5 5 0 0 1 10 0Z" fill="#FFE458"/><path d="M299.05 12a3 3 0 1 1-6 0 3 3 0 0 1 6 0Z" fill="#fff"/><path d="M315.7 12a5 5 0 1 1-10 0 5 5 0 0 1 10 0Z" fill="#FFE458"/><path d="M313.7 12a3 3 0 1 1-6 0 3 3 0 0 1 6 0Z" fill="#fff"/><path d="M330.35 12a5 5 0 1 1-10 0 5 5 0 0 1 10 0Z" fill="#FFE458"/><path d="M328.35 12a3 3 0 1 1-6 0 3 3 0 0 1 6 0Z" fill="#fff"/><path d="M42 21h10v10H42V21Z" fill="#FFE458"/><path d="M50 26a3 3 0 1 1-6 0 3 3 0 0 1 6 0Z" fill="#fff"/><path d="M66.65 26a5 5 0 1 1-10 0 5 5 0 0 1 10 0Z" fill="#FFE458"/><path d="M64.65 26a3 3 0 1 1-6 0 3 3 0 0 1 6 0Z" fill="#fff"/><path d="M81.3 26a5 5 0 1 1-10 0 5 5 0 0 1 10 0Z" fill="#FFE458"/><path d="M79.3 26a3 3 0 1 1-6 0 3 3 0 0 1 6 0Z" fill="#fff"/><path d="M95.95 26a5 5 0 1 1-10 0 5 5 0 0 1 10 0Z" fill="#FFE458"/><path d="M93.95 26a3 3 0 1 1-6 0 3 3 0 0 1 6 0Z" fill="#fff"/><path d="M110.6 26a5 5 0 1 1-10 0 5 5 0 0 1 10 0Z" fill="#FFE458"/><path d="M108.6 26a3 3 0 1 1-6 0 3 3 0 0 1 6 0Z" fill="#fff"/><path d="M125.25 26a5 5 0 1 1-10 0 5 5 0 0 1 10 0Z" fill="#FFE458"/><path d="M123.25 26a3 3 0 1 1-6 0 3 3 0 0 1 6 0Z" fill="#fff"/><path d="M139.9 26a5 5 0 1 1-10 0 5 5 0 0 1 10 0Z" fill="#FFE458"/><path d="M137.9 26a3 3 0 1 1-6 0 3 3 0 0 1 6 0Z" fill="#fff"/><path d="M154.55 26a5 5 0 1 1-10 0 5 5 0 0 1 10 0Z" fill="#FFE458"/><path d="M152.55 26a3 3 0 1 1-6 0 3 3 0 0 1 6 0Z" fill="#fff"/><path d="M169.2 26a5 5 0 1 1-10 0 5 5 0 0 1 10 0Z" fill="#FFE458"/><path d="M167.2 26a3 3 0 1 1-6 0 3 3 0 0 1 6 0Z" fill="#fff"/><path d="M183.85 26a5 5 0 1 1-10 0 5 5 0 0 1 10 0Z" fill="#FFE458"/><path d="M181.85 26a3 3 0 1 1-6 0 3 3 0 0 1 6 0Z" fill="#fff"/><path d="M198.5 26a5 5 0 1 1-10 0 5 5 0 0 1 10 0Z" fill="#FFE458"/><path d="M196.5 26a3 3 0 1 1-6 0 3 3 0 0 1 6 0Z" fill="#fff"/><path d="M213.15 26a5 5 0 1 1-10 0 5 5 0 0 1 10 0Z" fill="#FFE458"/><path d="M211.15 26a3 3 0 1 1-6 0 3 3 0 0 1 6 0Z" fill="#fff"/><path d="M227.8 26a5 5 0 1 1-10 0 5 5 0 0 1 10 0Z" fill="#FFE458"/><path d="M225.8 26a3 3 0 1 1-6 0 3 3 0 0 1 6 0Z" fill="#fff"/><path d="M242.45 26a5 5 0 1 1-10 0 5 5 0 0 1 10 0Z" fill="#FFE458"/><path d="M240.45 26a3 3 0 1 1-6 0 3 3 0 0 1 6 0Z" fill="#fff"/><path d="M257.1 26a5 5 0 1 1-10 0 5 5 0 0 1 10 0Z" fill="#FFE458"/><path d="M255.1 26a3 3 0 1 1-6 0 3 3 0 0 1 6 0Z" fill="#fff"/><path d="M271.75 26a5 5 0 1 1-10 0 5 5 0 0 1 10 0Z" fill="#FFE458"/><path d="M269.75 26a3 3 0 1 1-6 0 3 3 0 0 1 6 0Z" fill="#fff"/><path d="M286.4 26a5 5 0 1 1-10 0 5 5 0 0 1 10 0Z" fill="#FFE458"/><path d="M284.4 26a3 3 0 1 1-6 0 3 3 0 0 1 6 0Z" fill="#fff"/><path d="M301.05 26a5 5 0 1 1-10 0 5 5 0 0 1 10 0Z" fill="#FFE458"/><path d="M299.05 26a3 3 0 1 1-6 0 3 3 0 0 1 6 0Z" fill="#fff"/><path d="M315.7 26a5 5 0 1 1-10 0 5 5 0 0 1 10 0Z" fill="#FFE458"/><path d="M313.7 26a3 3 0 1 1-6 0 3 3 0 0 1 6 0Z" fill="#fff"/><path d="M330.35 26a5 5 0 1 1-10 0 5 5 0 0 1 10 0Z" fill="#FFE458"/><path d="M328.35 26a3 3 0 1 1-6 0 3 3 0 0 1 6 0Z" fill="#fff"/><path d="M306 49h10v10h-10V49Z" fill="#FFE458"/><path d="M314 54a3 3 0 1 1-6 0 3 3 0 0 1 6 0Z" fill="#fff"/><path d="M330.65 54a5 5 0 1 1-10 0 5 5 0 0 1 10 0Z" fill="#FFE458"/><path d="M328.65 54a3 3 0 1 1-6 0 3 3 0 0 1 6 0Z" fill="#fff"/><path d="M330.65 36h-10v10h10V36Z" fill="#FFE458"/><path d="M322.65 41a3 3 0 1 0 6 0 3 3 0 0 0-6 0Z" fill="#fff"/><path d="M306 41a5 5 0 1 0 10 0 5 5 0 0 0-10 0Z" fill="#FFE458"/><path d="M308 41a3 3 0 1 0 6 0 3 3 0 0 0-6 0Z" fill="#fff"/><path d="M316 118h9v18h-9v-18Z" fill="#E4E4E4"/><path d="M316 121h9v12h-9v-12Z" fill="#AB9695"/><path d="M327 90h8v17h-8V90Z" fill="#E4E4E4"/><path d="M327 92.833h8v11.334h-8V92.833Z" fill="#C8BAB9"/><path d="M338 90h8v17h-8V90Z" fill="#E4E4E4"/><path d="M338 92.833h8v11.334h-8V92.833Z" fill="#C8BAB9"/><path d="M288 94h8v17h-8V94Z" fill="#E4E4E4"/><path d="M288 96.833h8v11.334h-8V96.833Z" fill="#C8BAB9"/><path d="M298 94h8v17h-8V94Z" fill="#E4E4E4"/><path d="M298 96.833h8v11.334h-8V96.833Z" fill="#C8BAB9"/><path d="M151 44v-8h17v8h-17Z" fill="#E4E4E4"/><path d="M153.833 44v-8h11.334v8h-11.334Z" fill="#C8BAB9"/><path d="M151 56v-8h17v8h-17Z" fill="#E4E4E4"/><path d="M153.833 56v-8h11.334v8h-11.334Z" fill="#C8BAB9"/><path d="M293 127v-11h13v11h-13Z" fill="#E4E4E4"/><path d="M295.167 127v-11h8.666v11h-8.666Z" fill="#AB9695"/><path d="M186 40h11v13h-11V40Z" fill="#E4E4E4"/><path d="M186 42.167h11v8.666h-11v-8.666Z" fill="#AB9695"/><path d="M83 90.685h-5.607v-.756l2.628-1.188-2.637-1.206v-.747H83v.783h-4.023l2.133.99v.414l-2.115.936H83v.774Zm0-4.851h-.729v-1.098h-4.149v1.044h-.729v-2.997h.729v1.098h4.158v-1.152H83v3.105Zm.099-6.363c0 .306-.057.594-.171.864a1.955 1.955 0 0 1-.522.702 2.58 2.58 0 0 1-.891.486c-.36.114-.789.171-1.287.171a4.59 4.59 0 0 1-1.143-.126c-.33-.09-.606-.21-.828-.36a1.93 1.93 0 0 1-.54-.513 1.946 1.946 0 0 1-.297-.603 2.091 2.091 0 0 1-.099-.63c0-.42.099-.777.297-1.071.192-.3.459-.525.801-.675l.405.603.045.072-.063.045a.207.207 0 0 0-.135.009.64.64 0 0 0-.189.099 1.027 1.027 0 0 0-.351.423c-.06.15-.09.303-.09.459 0 .192.048.375.144.549.09.168.225.315.405.441.18.126.405.225.675.297.264.072.57.108.918.108.336 0 .639-.033.909-.099.264-.072.492-.168.684-.288.186-.126.33-.27.432-.432a1.07 1.07 0 0 0 .144-.54c0-.15-.021-.288-.063-.414a1.004 1.004 0 0 0-.207-.351 1.725 1.725 0 0 0-.36-.288l.441-.63c.33.198.57.435.72.711.144.276.216.603.216.981ZM83 77.068h-5.607v-1.746c0-.45.069-.816.207-1.098a1.3 1.3 0 0 1 .567-.63c.24-.138.525-.207.855-.207.21 0 .42.045.63.135.204.084.387.21.549.378.156.162.27.354.342.576L83 73.234v.945l-2.376 1.179v.801H83v.909Zm-3.123-.909v-.9c0-.324-.075-.564-.225-.72a.811.811 0 0 0-.612-.243c-.156 0-.3.036-.432.108a.726.726 0 0 0-.315.315 1.092 1.092 0 0 0-.117.54v.9h1.701Zm3.222-5.418c0 .444-.111.822-.333 1.134-.222.306-.549.537-.981.693-.432.156-.957.234-1.575.234-.606 0-1.122-.078-1.548-.234-.432-.156-.762-.387-.99-.693-.228-.312-.342-.69-.342-1.134 0-.45.114-.828.342-1.134.228-.306.558-.537.99-.693.426-.162.942-.243 1.548-.243.618 0 1.143.081 1.575.243.432.156.759.387.981.693.222.306.333.684.333 1.134Zm-.729 0a.892.892 0 0 0-.243-.63c-.162-.174-.402-.309-.72-.405-.324-.096-.726-.144-1.206-.144-.45 0-.834.048-1.152.144-.318.096-.561.231-.729.405a.858.858 0 0 0-.261.63c0 .246.087.459.261.639.168.174.411.306.729.396.318.09.702.135 1.152.135.48 0 .882-.045 1.206-.135.318-.09.558-.222.72-.396a.924.924 0 0 0 .243-.639Zm8.729 18.063c0 .372-.057.717-.171 1.035a2.113 2.113 0 0 1-.513.801l-.747-.441-.081-.045.045-.072c.042-.012.087-.027.135-.045a.574.574 0 0 0 .18-.135c.114-.15.21-.321.288-.513a1.78 1.78 0 0 0 .108-.63c0-.156-.018-.294-.054-.414a1.17 1.17 0 0 0-.162-.324.714.714 0 0 0-.252-.216.772.772 0 0 0-.333-.072.963.963 0 0 0-.234.027.51.51 0 0 0-.207.099.942.942 0 0 0-.198.207 2.174 2.174 0 0 0-.207.333 5.482 5.482 0 0 0-.243.495c-.168.39-.336.699-.504.927-.174.222-.36.381-.558.477a1.544 1.544 0 0 1-.666.144c-.276 0-.519-.075-.729-.225a1.483 1.483 0 0 1-.504-.621 2.146 2.146 0 0 1-.189-.918c0-.228.03-.441.09-.639a2.1 2.1 0 0 1 .243-.558c.102-.174.231-.33.387-.468l.612.522.072.054-.054.063a.633.633 0 0 0-.144.036.47.47 0 0 0-.18.117 1.034 1.034 0 0 0-.234.405 1.712 1.712 0 0 0-.063.495c0 .126.018.243.054.351a.733.733 0 0 0 .351.441.594.594 0 0 0 .252.054.857.857 0 0 0 .225-.027.613.613 0 0 0 .198-.099c.066-.054.135-.126.207-.216.066-.096.138-.216.216-.36.072-.144.153-.321.243-.531.126-.282.249-.516.369-.702.12-.192.246-.342.378-.45.126-.114.267-.195.423-.243a1.682 1.682 0 0 1 1.296.135c.246.132.45.342.612.63.162.288.243.66.243 1.116Zm-.09-2.718h-5.616v-1.395c0-.33.03-.606.09-.828a1.7 1.7 0 0 1 .684-.999c.168-.126.357-.231.567-.315.21-.09.441-.156.693-.198.246-.042.513-.063.801-.063.432.006.819.06 1.161.162.342.096.633.246.873.45.24.198.426.453.558.765.126.312.189.69.189 1.134v1.287Zm-.702-.855v-.414c0-.402-.081-.723-.243-.963a1.395 1.395 0 0 0-.711-.531 3.197 3.197 0 0 0-1.098-.171c-.444 0-.825.051-1.143.153a1.456 1.456 0 0 0-.738.495c-.18.222-.27.531-.27.927v.504h4.203Zm.792-10.26c0 .306-.057.594-.171.864a1.955 1.955 0 0 1-.522.702 2.58 2.58 0 0 1-.891.486c-.36.114-.789.171-1.287.171a4.59 4.59 0 0 1-1.143-.126c-.33-.09-.606-.21-.828-.36a1.93 1.93 0 0 1-.54-.513 1.946 1.946 0 0 1-.297-.603 2.091 2.091 0 0 1-.099-.63c0-.42.099-.777.297-1.071.192-.3.459-.525.801-.675l.405.603.045.072-.063.045a.207.207 0 0 0-.135.009.64.64 0 0 0-.189.099 1.027 1.027 0 0 0-.351.423c-.06.15-.09.303-.09.459 0 .192.048.375.144.549.09.168.225.315.405.441.18.126.405.225.675.297.264.072.57.108.918.108.336 0 .639-.033.909-.099.264-.072.492-.168.684-.288.186-.126.33-.27.432-.432a1.07 1.07 0 0 0 .144-.54c0-.15-.021-.288-.063-.414a1.004 1.004 0 0 0-.207-.351 1.725 1.725 0 0 0-.36-.288l.441-.63c.33.198.57.435.72.711.144.276.216.603.216.981Zm-1.521-5.238v2.133l-.639-.135v-1.845l.639-.153Zm-2.511 1.017L91 72.001v.873l-5.67-1.953v-.351L91 68.617v.9l-3.933 1.233ZM91 68.068h-5.607v-1.746c0-.45.069-.816.207-1.098a1.3 1.3 0 0 1 .567-.63c.24-.138.525-.207.855-.207.21 0 .42.045.63.135.204.084.387.21.549.378.156.162.27.354.342.576L91 64.234v.945l-2.376 1.179v.801H91v.909Zm-3.123-.909v-.9c0-.324-.075-.564-.225-.72a.811.811 0 0 0-.612-.243c-.156 0-.3.036-.432.108a.726.726 0 0 0-.315.315 1.092 1.092 0 0 0-.117.54v.9h1.701Zm3.132-3.573h-5.616v-1.395c0-.33.03-.606.09-.828a1.7 1.7 0 0 1 .684-.999c.168-.126.357-.231.567-.315.21-.09.441-.156.693-.198.246-.042.513-.063.801-.063.432.006.819.06 1.161.162.342.096.633.246.873.45.24.198.426.453.558.765.126.312.189.69.189 1.134v1.287Zm-.702-.855v-.414c0-.402-.081-.723-.243-.963a1.395 1.395 0 0 0-.711-.531 3.197 3.197 0 0 0-1.098-.171c-.444 0-.825.051-1.143.153a1.456 1.456 0 0 0-.738.495c-.18.222-.27.531-.27.927v.504h4.203Zm185.186-15.632c-.462 0-.861-.117-1.197-.351-.336-.24-.594-.576-.774-1.008-.174-.432-.261-.933-.261-1.503-.006-.48.039-.888.135-1.224.102-.342.234-.624.396-.846a1.976 1.976 0 0 1 1.134-.783c.198-.048.381-.072.549-.072.234 0 .462.039.684.117.222.078.423.189.603.333.186.138.333.309.441.513l-.54.513-.072.063-.054-.063a.256.256 0 0 0-.018-.135.954.954 0 0 0-.117-.18 1.258 1.258 0 0 0-.252-.225.91.91 0 0 0-.288-.135 1.197 1.197 0 0 0-.378-.054c-.144 0-.282.024-.414.072a1.012 1.012 0 0 0-.369.216 1.248 1.248 0 0 0-.297.387c-.084.162-.15.36-.198.594a3.927 3.927 0 0 0-.072.801c0 .372.033.696.099.972s.156.507.27.693c.12.186.264.327.432.423.168.096.354.144.558.144.072 0 .147-.006.225-.018.084-.012.165-.027.243-.045.084-.024.162-.057.234-.099a1.89 1.89 0 0 0 .216-.135v-1.143h-.954v-.738h1.755v2.331a2.773 2.773 0 0 1-.837.45 2.94 2.94 0 0 1-.882.135Zm2.466-.099v-5.607h1.881c.426 0 .774.075 1.044.225.276.144.48.339.612.585.132.246.198.516.198.81 0 .222-.036.429-.108.621a1.429 1.429 0 0 1-.891.855 2.509 2.509 0 0 1-.81.117h-1.017V47h-.909Zm.909-3.141h.945c.222 0 .402-.033.54-.099a.744.744 0 0 0 .324-.297.906.906 0 0 0 .108-.441.855.855 0 0 0-.108-.432.744.744 0 0 0-.324-.297 1.07 1.07 0 0 0-.531-.117h-.954v1.683ZM282.666 47v-.729h1.098v-4.149h-1.044v-.729h2.997v.729h-1.098v4.158h1.152V47h-3.105Zm6.093.099c-.444 0-.822-.111-1.134-.333-.306-.222-.537-.549-.693-.981-.156-.432-.234-.957-.234-1.575 0-.606.078-1.122.234-1.548.156-.432.387-.762.693-.99.312-.228.69-.342 1.134-.342.45 0 .828.114 1.134.342.306.228.537.558.693.99.162.426.243.942.243 1.548 0 .618-.081 1.143-.243 1.575-.156.432-.387.759-.693.981-.306.222-.684.333-1.134.333Zm0-.729a.892.892 0 0 0 .63-.243c.174-.162.309-.402.405-.72.096-.324.144-.726.144-1.206 0-.45-.048-.834-.144-1.152-.096-.318-.231-.561-.405-.729a.858.858 0 0 0-.63-.261.889.889 0 0 0-.639.261c-.174.168-.306.411-.396.729-.09.318-.135.702-.135 1.152 0 .48.045.882.135 1.206.09.318.222.558.396.72.18.162.393.243.639.243Zm-71.509 92.738c-.606 0-1.071-.18-1.395-.54-.324-.366-.486-.873-.486-1.521v-3.654h.963v.081a.27.27 0 0 0-.072.117 1.757 1.757 0 0 0-.009.216v3.249c0 .408.072.732.216.972.15.24.414.36.792.36.384 0 .651-.12.801-.36.15-.24.225-.573.225-.999v-3.636h.873v3.627c0 .48-.081.873-.243 1.179a1.582 1.582 0 0 1-.675.684c-.282.15-.612.225-.99.225Zm4.446-.009c-.372 0-.717-.057-1.035-.171a2.113 2.113 0 0 1-.801-.513l.441-.747.045-.081.072.045c.012.042.027.087.045.135a.574.574 0 0 0 .135.18c.15.114.321.21.513.288.192.072.402.108.63.108.156 0 .294-.018.414-.054a1.17 1.17 0 0 0 .324-.162.714.714 0 0 0 .216-.252.772.772 0 0 0 .072-.333.963.963 0 0 0-.027-.234.51.51 0 0 0-.099-.207.942.942 0 0 0-.207-.198 2.174 2.174 0 0 0-.333-.207 5.482 5.482 0 0 0-.495-.243 4.762 4.762 0 0 1-.927-.504 1.627 1.627 0 0 1-.477-.558 1.544 1.544 0 0 1-.144-.666c0-.276.075-.519.225-.729.15-.216.357-.384.621-.504.27-.126.576-.189.918-.189.228 0 .441.03.639.09a2.1 2.1 0 0 1 .558.243c.174.102.33.231.468.387l-.522.612-.054.072-.063-.054a.633.633 0 0 0-.036-.144.47.47 0 0 0-.117-.18 1.034 1.034 0 0 0-.405-.234 1.712 1.712 0 0 0-.495-.063c-.126 0-.243.018-.351.054a.733.733 0 0 0-.441.351.594.594 0 0 0-.054.252c0 .084.009.159.027.225a.613.613 0 0 0 .099.198c.054.066.126.135.216.207.096.066.216.138.36.216.144.072.321.153.531.243.282.126.516.249.702.369.192.12.342.246.45.378.114.126.195.267.243.423a1.682 1.682 0 0 1-.135 1.296 1.55 1.55 0 0 1-.63.612c-.288.162-.66.243-1.116.243Zm2.673-.099v-5.607h1.674c.33 0 .615.033.855.099.246.066.447.162.603.288.162.126.282.276.36.45a1.348 1.348 0 0 1 .018 1.053c-.06.162-.15.309-.27.441a1.086 1.086 0 0 1-.441.288 1.7 1.7 0 0 1 .423.234c.126.096.234.207.324.333.09.12.159.249.207.387.054.138.081.282.081.432 0 .24-.045.459-.135.657-.09.198-.225.369-.405.513a2.02 2.02 0 0 1-.675.324 3.73 3.73 0 0 1-.954.108h-1.665Zm.882-.747h.882c.234 0 .435-.03.603-.09a.812.812 0 0 0 .387-.297.835.835 0 0 0 .144-.504.982.982 0 0 0-.126-.504.792.792 0 0 0-.396-.351c-.186-.084-.438-.126-.756-.126h-.738v1.872Zm0-2.592h.702c.288 0 .513-.033.675-.099.168-.066.285-.159.351-.279a.772.772 0 0 0 .108-.405.715.715 0 0 0-.063-.306.561.561 0 0 0-.18-.234.823.823 0 0 0-.324-.162 1.792 1.792 0 0 0-.468-.054h-.801v1.539ZM285.459 138v-5.607h1.881c.426 0 .774.075 1.044.225.276.144.48.339.612.585.132.246.198.516.198.81 0 .222-.036.429-.108.621a1.429 1.429 0 0 1-.891.855 2.509 2.509 0 0 1-.81.117h-1.017V138h-.909Zm.909-3.141h.945c.222 0 .402-.033.54-.099a.744.744 0 0 0 .324-.297.906.906 0 0 0 .108-.441.855.855 0 0 0-.108-.432.744.744 0 0 0-.324-.297 1.07 1.07 0 0 0-.531-.117h-.954v1.683Zm4.041 3.141-.792-5.607h.774l.459 3.609.783-3.177h.414l.792 3.177.36-3.609h.729l-.774 5.607h-.504l-.855-3.528-.864 3.528h-.522Zm4.023 0v-5.607h1.746c.45 0 .816.069 1.098.207a1.3 1.3 0 0 1 .63.567c.138.24.207.525.207.855 0 .21-.045.42-.135.63a1.61 1.61 0 0 1-.378.549c-.162.156-.354.27-.576.342l1.242 2.457h-.945l-1.179-2.376h-.801V138h-.909Zm.909-3.123h.9c.324 0 .564-.075.72-.225a.811.811 0 0 0 .243-.612c0-.156-.036-.3-.108-.432a.726.726 0 0 0-.315-.315 1.092 1.092 0 0 0-.54-.117h-.9v1.701Zm8.325 3.123v-.729h1.098v-4.149h-1.044v-.729h2.997v.729h-1.098v4.158h1.152v.72h-3.105Zm4.203-5.607h.909l2.061 3.852-.036-3.852h.891v.081a.27.27 0 0 0-.072.117 1.757 1.757 0 0 0-.009.216V138h-.792l-2.142-4.086V138h-.81v-5.607Z" fill="#fff" fill-opacity=".8"/></svg>